<mxfile host="app.diagrams.net" agent="Mozilla/5.0 (Windows NT 10.0; Win64; x64) AppleWebKit/537.36 (KHTML, like Gecko) Chrome/132.0.0.0 Safari/537.36 Edg/132.0.0.0" version="26.0.7">
  <diagram name="Seite-1" id="U55VY41ZMDPGKEKocc0f">
    <mxGraphModel dx="1424" dy="819" grid="1" gridSize="10" guides="1" tooltips="1" connect="1" arrows="1" fold="1" page="0" pageScale="1" pageWidth="1654" pageHeight="1169" math="0" shadow="0">
      <root>
        <mxCell id="0" />
        <mxCell id="1" parent="0" />
        <mxCell id="Y04NO-_lselbnzWUPmIl-13" value="" style="verticalLabelPosition=bottom;aspect=fixed;html=1;verticalAlign=top;fillColor=strokeColor;align=center;outlineConnect=0;shape=mxgraph.fluid_power.x11820;points=[[0.5,1,0]];fontFamily=Helvetica;fontSize=12;fontColor=default;labelBackgroundColor=default;" vertex="1" parent="1">
          <mxGeometry x="121" y="122" width="37.34" height="56.1" as="geometry" />
        </mxCell>
        <mxCell id="Y04NO-_lselbnzWUPmIl-15" value="" style="shape=mxgraph.pid.compressors_-_iso.compressor,_vacuum_pump;html=1;pointerEvents=1;align=center;verticalLabelPosition=bottom;verticalAlign=top;dashed=0;fontFamily=Helvetica;fontSize=12;labelBackgroundColor=default;fillColor=#f8cecc;strokeColor=#b85450;" vertex="1" parent="1">
          <mxGeometry x="555" y="336" width="100" height="100" as="geometry" />
        </mxCell>
        <mxCell id="Y04NO-_lselbnzWUPmIl-16" value="" style="verticalLabelPosition=bottom;align=center;html=1;verticalAlign=top;pointerEvents=1;dashed=0;shape=mxgraph.pid2valves.valve;valveType=ball;fontFamily=Helvetica;fontSize=12;labelBackgroundColor=default;points=[];fillColor=#d5e8d4;strokeColor=#82b366;" vertex="1" parent="1">
          <mxGeometry x="300" y="131" width="100" height="60" as="geometry" />
        </mxCell>
        <mxCell id="Y04NO-_lselbnzWUPmIl-17" value="" style="verticalLabelPosition=bottom;align=center;dashed=0;html=1;verticalAlign=top;shape=mxgraph.pid.piping.cone_strainer;fontFamily=Helvetica;fontSize=12;fontColor=default;labelBackgroundColor=default;" vertex="1" parent="1">
          <mxGeometry x="240" y="96" width="30" height="30" as="geometry" />
        </mxCell>
        <mxCell id="Y04NO-_lselbnzWUPmIl-18" value="" style="verticalLabelPosition=bottom;align=center;outlineConnect=0;dashed=0;html=1;verticalAlign=top;shape=mxgraph.pid.flow_sensors.ultrasonic;fontFamily=Helvetica;fontSize=12;fontColor=default;labelBackgroundColor=default;" vertex="1" parent="1">
          <mxGeometry x="779" y="70" width="50" height="50" as="geometry" />
        </mxCell>
        <mxCell id="Y04NO-_lselbnzWUPmIl-19" value="" style="verticalLabelPosition=bottom;outlineConnect=0;align=center;dashed=0;html=1;verticalAlign=top;shape=mxgraph.pid2misc.column;columnType=common;fontFamily=Helvetica;fontSize=12;fontColor=default;labelBackgroundColor=default;" vertex="1" parent="1">
          <mxGeometry x="41" y="274" width="50" height="317" as="geometry" />
        </mxCell>
        <mxCell id="Y04NO-_lselbnzWUPmIl-20" value="" style="verticalLabelPosition=bottom;outlineConnect=0;align=center;dashed=0;html=1;verticalAlign=top;shape=mxgraph.pid2misc.column;columnType=fluid;fontFamily=Helvetica;fontSize=12;fontColor=default;labelBackgroundColor=default;" vertex="1" parent="1">
          <mxGeometry x="210" y="274" width="50" height="120" as="geometry" />
        </mxCell>
        <mxCell id="Y04NO-_lselbnzWUPmIl-21" value="" style="verticalLabelPosition=bottom;outlineConnect=0;align=center;dashed=0;html=1;verticalAlign=top;shape=mxgraph.pid2misc.column;columnType=tray;fontFamily=Helvetica;fontSize=12;fontColor=default;labelBackgroundColor=default;" vertex="1" parent="1">
          <mxGeometry x="119" y="272" width="50" height="120" as="geometry" />
        </mxCell>
        <mxCell id="Y04NO-_lselbnzWUPmIl-22" value="" style="verticalLabelPosition=bottom;outlineConnect=0;align=center;dashed=0;html=1;verticalAlign=top;shape=mxgraph.pid2misc.column;columnType=fixed;fontFamily=Helvetica;fontSize=12;fontColor=default;labelBackgroundColor=default;" vertex="1" parent="1">
          <mxGeometry x="791" y="165" width="50" height="180" as="geometry" />
        </mxCell>
        <mxCell id="Y04NO-_lselbnzWUPmIl-23" value="" style="rounded=0;whiteSpace=wrap;html=1;fontFamily=Helvetica;fontSize=12;fontColor=default;labelBackgroundColor=default;" vertex="1" parent="1">
          <mxGeometry x="650" y="480" width="100" height="100" as="geometry" />
        </mxCell>
        <mxCell id="Y04NO-_lselbnzWUPmIl-37" value="" style="group;fillColor=#dae8fc;strokeColor=#6c8ebf;" vertex="1" connectable="0" parent="1">
          <mxGeometry x="620" y="120" width="140" height="60" as="geometry" />
        </mxCell>
        <mxCell id="Y04NO-_lselbnzWUPmIl-32" value="" style="endArrow=none;html=1;rounded=0;strokeColor=default;align=center;verticalAlign=middle;fontFamily=Helvetica;fontSize=12;fontColor=default;labelBackgroundColor=default;edgeStyle=none;startSize=8;endSize=8;curved=0;" edge="1" parent="Y04NO-_lselbnzWUPmIl-37">
          <mxGeometry width="50" height="50" relative="1" as="geometry">
            <mxPoint y="60" as="sourcePoint" />
            <mxPoint as="targetPoint" />
          </mxGeometry>
        </mxCell>
        <mxCell id="Y04NO-_lselbnzWUPmIl-26" value="" style="triangle;whiteSpace=wrap;html=1;fontFamily=Helvetica;fontSize=12;labelBackgroundColor=default;" vertex="1" parent="Y04NO-_lselbnzWUPmIl-37">
          <mxGeometry x="20" width="50" height="60" as="geometry" />
        </mxCell>
        <mxCell id="Y04NO-_lselbnzWUPmIl-30" value="" style="triangle;whiteSpace=wrap;html=1;fontFamily=Helvetica;fontSize=12;labelBackgroundColor=default;rotation=-180;" vertex="1" parent="Y04NO-_lselbnzWUPmIl-37">
          <mxGeometry x="70" width="50" height="60" as="geometry" />
        </mxCell>
        <mxCell id="Y04NO-_lselbnzWUPmIl-29" value="" style="ellipse;whiteSpace=wrap;html=1;aspect=fixed;fontFamily=Helvetica;fontSize=12;labelBackgroundColor=default;" vertex="1" parent="Y04NO-_lselbnzWUPmIl-37">
          <mxGeometry x="50" y="11" width="40" height="40" as="geometry" />
        </mxCell>
        <mxCell id="Y04NO-_lselbnzWUPmIl-33" value="" style="endArrow=none;html=1;rounded=0;strokeColor=default;align=center;verticalAlign=middle;fontFamily=Helvetica;fontSize=12;fontColor=default;labelBackgroundColor=default;edgeStyle=none;startSize=8;endSize=8;curved=0;" edge="1" parent="Y04NO-_lselbnzWUPmIl-37">
          <mxGeometry width="50" height="50" relative="1" as="geometry">
            <mxPoint x="140" y="60" as="sourcePoint" />
            <mxPoint x="140" as="targetPoint" />
          </mxGeometry>
        </mxCell>
        <mxCell id="Y04NO-_lselbnzWUPmIl-34" value="" style="endArrow=none;html=1;rounded=0;strokeColor=default;align=center;verticalAlign=middle;fontFamily=Helvetica;fontSize=12;fontColor=default;labelBackgroundColor=default;edgeStyle=none;startSize=8;endSize=8;curved=0;entryX=0;entryY=0.5;entryDx=0;entryDy=0;" edge="1" parent="Y04NO-_lselbnzWUPmIl-37" target="Y04NO-_lselbnzWUPmIl-26">
          <mxGeometry width="50" height="50" relative="1" as="geometry">
            <mxPoint y="30" as="sourcePoint" />
            <mxPoint x="80" y="-60" as="targetPoint" />
          </mxGeometry>
        </mxCell>
        <mxCell id="Y04NO-_lselbnzWUPmIl-35" value="" style="endArrow=none;html=1;rounded=0;strokeColor=default;align=center;verticalAlign=middle;fontFamily=Helvetica;fontSize=12;fontColor=default;labelBackgroundColor=default;edgeStyle=none;startSize=8;endSize=8;curved=0;exitX=0;exitY=0.5;exitDx=0;exitDy=0;" edge="1" parent="Y04NO-_lselbnzWUPmIl-37" source="Y04NO-_lselbnzWUPmIl-30">
          <mxGeometry width="50" height="50" relative="1" as="geometry">
            <mxPoint x="120" y="86.16000000000003" as="sourcePoint" />
            <mxPoint x="140" y="30" as="targetPoint" />
          </mxGeometry>
        </mxCell>
        <mxCell id="Y04NO-_lselbnzWUPmIl-47" value="" style="group" vertex="1" connectable="0" parent="1">
          <mxGeometry x="470" y="120" width="140" height="60" as="geometry" />
        </mxCell>
        <mxCell id="Y04NO-_lselbnzWUPmIl-39" value="" style="endArrow=none;html=1;rounded=0;strokeColor=#9673a6;align=center;verticalAlign=middle;fontFamily=Helvetica;fontSize=12;fontColor=default;labelBackgroundColor=default;edgeStyle=none;startSize=8;endSize=8;curved=0;fillColor=#e1d5e7;" edge="1" parent="Y04NO-_lselbnzWUPmIl-47">
          <mxGeometry width="50" height="50" relative="1" as="geometry">
            <mxPoint y="60" as="sourcePoint" />
            <mxPoint as="targetPoint" />
          </mxGeometry>
        </mxCell>
        <mxCell id="Y04NO-_lselbnzWUPmIl-40" value="" style="triangle;whiteSpace=wrap;html=1;fontFamily=Helvetica;fontSize=12;labelBackgroundColor=default;fillColor=#e1d5e7;strokeColor=#9673a6;" vertex="1" parent="Y04NO-_lselbnzWUPmIl-47">
          <mxGeometry x="20" width="50" height="60" as="geometry" />
        </mxCell>
        <mxCell id="Y04NO-_lselbnzWUPmIl-41" value="" style="triangle;whiteSpace=wrap;html=1;fontFamily=Helvetica;fontSize=12;labelBackgroundColor=default;rotation=-180;fillColor=#e1d5e7;strokeColor=#9673a6;" vertex="1" parent="Y04NO-_lselbnzWUPmIl-47">
          <mxGeometry x="70" width="50" height="60" as="geometry" />
        </mxCell>
        <mxCell id="Y04NO-_lselbnzWUPmIl-42" value="" style="ellipse;whiteSpace=wrap;html=1;aspect=fixed;fontFamily=Helvetica;fontSize=12;labelBackgroundColor=default;fillColor=#e1d5e7;strokeColor=#9673a6;" vertex="1" parent="Y04NO-_lselbnzWUPmIl-47">
          <mxGeometry x="50" y="11" width="40" height="40" as="geometry" />
        </mxCell>
        <mxCell id="Y04NO-_lselbnzWUPmIl-43" value="" style="endArrow=none;html=1;rounded=0;strokeColor=#9673a6;align=center;verticalAlign=middle;fontFamily=Helvetica;fontSize=12;fontColor=default;labelBackgroundColor=default;edgeStyle=none;startSize=8;endSize=8;curved=0;fillColor=#e1d5e7;" edge="1" parent="Y04NO-_lselbnzWUPmIl-47">
          <mxGeometry width="50" height="50" relative="1" as="geometry">
            <mxPoint x="140" y="60" as="sourcePoint" />
            <mxPoint x="140" as="targetPoint" />
          </mxGeometry>
        </mxCell>
        <mxCell id="Y04NO-_lselbnzWUPmIl-44" value="" style="endArrow=none;html=1;rounded=0;strokeColor=#9673a6;align=center;verticalAlign=middle;fontFamily=Helvetica;fontSize=12;fontColor=default;labelBackgroundColor=default;edgeStyle=none;startSize=8;endSize=8;curved=0;entryX=0;entryY=0.5;entryDx=0;entryDy=0;fillColor=#e1d5e7;" edge="1" parent="Y04NO-_lselbnzWUPmIl-47" target="Y04NO-_lselbnzWUPmIl-40">
          <mxGeometry width="50" height="50" relative="1" as="geometry">
            <mxPoint y="30" as="sourcePoint" />
            <mxPoint x="80" y="-60" as="targetPoint" />
          </mxGeometry>
        </mxCell>
        <mxCell id="Y04NO-_lselbnzWUPmIl-45" value="" style="endArrow=none;html=1;rounded=0;strokeColor=#9673a6;align=center;verticalAlign=middle;fontFamily=Helvetica;fontSize=12;fontColor=default;labelBackgroundColor=default;edgeStyle=none;startSize=8;endSize=8;curved=0;exitX=0;exitY=0.5;exitDx=0;exitDy=0;fillColor=#e1d5e7;" edge="1" parent="Y04NO-_lselbnzWUPmIl-47" source="Y04NO-_lselbnzWUPmIl-41">
          <mxGeometry width="50" height="50" relative="1" as="geometry">
            <mxPoint x="30" y="-10" as="sourcePoint" />
            <mxPoint x="140" y="30" as="targetPoint" />
          </mxGeometry>
        </mxCell>
        <mxCell id="Y04NO-_lselbnzWUPmIl-56" value="" style="group;fillColor=#dae8fc;strokeColor=#6c8ebf;" vertex="1" connectable="0" parent="1">
          <mxGeometry x="350" y="250" width="140" height="60" as="geometry" />
        </mxCell>
        <mxCell id="Y04NO-_lselbnzWUPmIl-49" value="" style="endArrow=none;html=1;rounded=0;strokeColor=default;align=center;verticalAlign=middle;fontFamily=Helvetica;fontSize=12;fontColor=default;labelBackgroundColor=default;edgeStyle=none;startSize=8;endSize=8;curved=0;" edge="1" parent="Y04NO-_lselbnzWUPmIl-56">
          <mxGeometry width="50" height="50" relative="1" as="geometry">
            <mxPoint y="60" as="sourcePoint" />
            <mxPoint as="targetPoint" />
          </mxGeometry>
        </mxCell>
        <mxCell id="Y04NO-_lselbnzWUPmIl-50" value="" style="triangle;whiteSpace=wrap;html=1;fontFamily=Helvetica;fontSize=12;labelBackgroundColor=default;" vertex="1" parent="Y04NO-_lselbnzWUPmIl-56">
          <mxGeometry x="20" width="50" height="60" as="geometry" />
        </mxCell>
        <mxCell id="Y04NO-_lselbnzWUPmIl-51" value="" style="triangle;whiteSpace=wrap;html=1;fontFamily=Helvetica;fontSize=12;labelBackgroundColor=default;rotation=-180;" vertex="1" parent="Y04NO-_lselbnzWUPmIl-56">
          <mxGeometry x="70" width="50" height="60" as="geometry" />
        </mxCell>
        <mxCell id="Y04NO-_lselbnzWUPmIl-52" value="" style="ellipse;whiteSpace=wrap;html=1;aspect=fixed;fontFamily=Helvetica;fontSize=12;labelBackgroundColor=default;" vertex="1" parent="Y04NO-_lselbnzWUPmIl-56">
          <mxGeometry x="50" y="11" width="40" height="40" as="geometry" />
        </mxCell>
        <mxCell id="Y04NO-_lselbnzWUPmIl-53" value="" style="endArrow=none;html=1;rounded=0;strokeColor=default;align=center;verticalAlign=middle;fontFamily=Helvetica;fontSize=12;fontColor=default;labelBackgroundColor=default;edgeStyle=none;startSize=8;endSize=8;curved=0;" edge="1" parent="Y04NO-_lselbnzWUPmIl-56">
          <mxGeometry width="50" height="50" relative="1" as="geometry">
            <mxPoint x="140" y="60" as="sourcePoint" />
            <mxPoint x="140" as="targetPoint" />
          </mxGeometry>
        </mxCell>
        <mxCell id="Y04NO-_lselbnzWUPmIl-54" value="" style="endArrow=none;html=1;rounded=0;strokeColor=default;align=center;verticalAlign=middle;fontFamily=Helvetica;fontSize=12;fontColor=default;labelBackgroundColor=default;edgeStyle=none;startSize=8;endSize=8;curved=0;entryX=0;entryY=0.5;entryDx=0;entryDy=0;" edge="1" parent="Y04NO-_lselbnzWUPmIl-56" target="Y04NO-_lselbnzWUPmIl-50">
          <mxGeometry width="50" height="50" relative="1" as="geometry">
            <mxPoint y="30" as="sourcePoint" />
            <mxPoint x="80" y="-60" as="targetPoint" />
          </mxGeometry>
        </mxCell>
        <mxCell id="Y04NO-_lselbnzWUPmIl-55" value="" style="endArrow=none;html=1;rounded=0;strokeColor=default;align=center;verticalAlign=middle;fontFamily=Helvetica;fontSize=12;fontColor=default;labelBackgroundColor=default;edgeStyle=none;startSize=8;endSize=8;curved=0;exitX=0;exitY=0.5;exitDx=0;exitDy=0;" edge="1" parent="Y04NO-_lselbnzWUPmIl-56" source="Y04NO-_lselbnzWUPmIl-51">
          <mxGeometry width="50" height="50" relative="1" as="geometry">
            <mxPoint x="30" y="-10" as="sourcePoint" />
            <mxPoint x="140" y="30" as="targetPoint" />
          </mxGeometry>
        </mxCell>
        <object label="" Test="Fu132" tooltip="Tooltip 123" id="Y04NO-_lselbnzWUPmIl-57">
          <mxCell style="group;fontFamily=Helvetica;fontSize=12;fontColor=default;labelBackgroundColor=default;rounded=0;arcSize=37;glass=0;shadow=0;points=[[0,0.5,0,0,0],[1,0.5,0,0,0]];" vertex="1" connectable="0" parent="1">
            <mxGeometry x="310" y="580" width="100" height="60" as="geometry" />
          </mxCell>
        </object>
        <mxCell id="Y04NO-_lselbnzWUPmIl-62" style="edgeStyle=none;shape=connector;curved=0;rounded=0;orthogonalLoop=1;jettySize=auto;html=1;exitX=0;exitY=0.5;exitDx=0;exitDy=0;strokeColor=default;align=center;verticalAlign=middle;fontFamily=Helvetica;fontSize=12;fontColor=default;labelBackgroundColor=default;startSize=8;endArrow=classic;endSize=8;" edge="1" parent="Y04NO-_lselbnzWUPmIl-57" source="Y04NO-_lselbnzWUPmIl-58">
          <mxGeometry relative="1" as="geometry">
            <mxPoint x="-100" y="30.095238095238074" as="targetPoint" />
          </mxGeometry>
        </mxCell>
        <mxCell id="Y04NO-_lselbnzWUPmIl-58" value="" style="triangle;whiteSpace=wrap;html=1;fontFamily=Helvetica;fontSize=12;labelBackgroundColor=default;fontColor=default;" vertex="1" parent="Y04NO-_lselbnzWUPmIl-57">
          <mxGeometry width="50" height="60" as="geometry" />
        </mxCell>
        <mxCell id="Y04NO-_lselbnzWUPmIl-59" value="" style="triangle;whiteSpace=wrap;html=1;fontFamily=Helvetica;fontSize=12;labelBackgroundColor=default;rotation=-180;fontColor=default;" vertex="1" parent="Y04NO-_lselbnzWUPmIl-57">
          <mxGeometry x="50" width="50" height="60" as="geometry" />
        </mxCell>
        <mxCell id="Y04NO-_lselbnzWUPmIl-60" value="" style="ellipse;whiteSpace=wrap;html=1;aspect=fixed;fontFamily=Helvetica;fontSize=12;labelBackgroundColor=default;fontColor=default;" vertex="1" parent="Y04NO-_lselbnzWUPmIl-57">
          <mxGeometry x="30" y="11" width="40" height="40" as="geometry" />
        </mxCell>
        <mxCell id="Y04NO-_lselbnzWUPmIl-61" style="edgeStyle=orthogonalEdgeStyle;shape=connector;rounded=0;orthogonalLoop=1;jettySize=auto;html=1;exitX=0;exitY=0.5;exitDx=0;exitDy=0;strokeColor=default;align=center;verticalAlign=middle;fontFamily=Helvetica;fontSize=12;fontColor=default;labelBackgroundColor=default;startSize=8;endArrow=classic;endSize=8;entryX=0;entryY=0.5;entryDx=0;entryDy=0;" edge="1" parent="1" source="Y04NO-_lselbnzWUPmIl-59" target="Y04NO-_lselbnzWUPmIl-23">
          <mxGeometry relative="1" as="geometry">
            <mxPoint x="620" y="530.0952380952381" as="targetPoint" />
          </mxGeometry>
        </mxCell>
        <mxCell id="Y04NO-_lselbnzWUPmIl-63" value="" style="group;fontFamily=Helvetica;fontSize=12;fontColor=default;labelBackgroundColor=default;points=[[0,0.5,0,0,0],[1,0.5,0,0,0]];" vertex="1" connectable="0" parent="1">
          <mxGeometry x="270" y="800" width="140" height="60" as="geometry" />
        </mxCell>
        <mxCell id="Y04NO-_lselbnzWUPmIl-64" value="" style="endArrow=none;html=1;rounded=0;strokeColor=default;align=center;verticalAlign=middle;fontFamily=Helvetica;fontSize=12;fontColor=default;labelBackgroundColor=default;edgeStyle=none;startSize=8;endSize=8;curved=0;" edge="1" parent="Y04NO-_lselbnzWUPmIl-63">
          <mxGeometry width="50" height="50" relative="1" as="geometry">
            <mxPoint y="60" as="sourcePoint" />
            <mxPoint as="targetPoint" />
          </mxGeometry>
        </mxCell>
        <mxCell id="Y04NO-_lselbnzWUPmIl-65" value="" style="triangle;whiteSpace=wrap;html=1;fontFamily=Helvetica;fontSize=12;labelBackgroundColor=default;fontColor=default;" vertex="1" parent="Y04NO-_lselbnzWUPmIl-63">
          <mxGeometry x="20" width="50" height="60" as="geometry" />
        </mxCell>
        <mxCell id="Y04NO-_lselbnzWUPmIl-66" value="" style="triangle;whiteSpace=wrap;html=1;fontFamily=Helvetica;fontSize=12;labelBackgroundColor=default;rotation=-180;fontColor=default;" vertex="1" parent="Y04NO-_lselbnzWUPmIl-63">
          <mxGeometry x="70" width="50" height="60" as="geometry" />
        </mxCell>
        <mxCell id="Y04NO-_lselbnzWUPmIl-67" value="" style="ellipse;whiteSpace=wrap;html=1;aspect=fixed;fontFamily=Helvetica;fontSize=12;labelBackgroundColor=default;fontColor=default;" vertex="1" parent="Y04NO-_lselbnzWUPmIl-63">
          <mxGeometry x="50" y="11" width="40" height="40" as="geometry" />
        </mxCell>
        <mxCell id="Y04NO-_lselbnzWUPmIl-68" value="" style="endArrow=none;html=1;rounded=0;strokeColor=default;align=center;verticalAlign=middle;fontFamily=Helvetica;fontSize=12;fontColor=default;labelBackgroundColor=default;edgeStyle=none;startSize=8;endSize=8;curved=0;" edge="1" parent="Y04NO-_lselbnzWUPmIl-63">
          <mxGeometry width="50" height="50" relative="1" as="geometry">
            <mxPoint x="140" y="60" as="sourcePoint" />
            <mxPoint x="140" as="targetPoint" />
          </mxGeometry>
        </mxCell>
        <mxCell id="Y04NO-_lselbnzWUPmIl-69" value="" style="endArrow=none;html=1;rounded=0;strokeColor=default;align=center;verticalAlign=middle;fontFamily=Helvetica;fontSize=12;fontColor=default;labelBackgroundColor=default;edgeStyle=none;startSize=8;endSize=8;curved=0;entryX=0;entryY=0.5;entryDx=0;entryDy=0;" edge="1" parent="Y04NO-_lselbnzWUPmIl-63" target="Y04NO-_lselbnzWUPmIl-65">
          <mxGeometry width="50" height="50" relative="1" as="geometry">
            <mxPoint y="30" as="sourcePoint" />
            <mxPoint x="80" y="-60" as="targetPoint" />
          </mxGeometry>
        </mxCell>
        <mxCell id="Y04NO-_lselbnzWUPmIl-70" value="" style="endArrow=none;html=1;rounded=0;strokeColor=default;align=center;verticalAlign=middle;fontFamily=Helvetica;fontSize=12;fontColor=default;labelBackgroundColor=default;edgeStyle=none;startSize=8;endSize=8;curved=0;exitX=0;exitY=0.5;exitDx=0;exitDy=0;" edge="1" parent="Y04NO-_lselbnzWUPmIl-63" source="Y04NO-_lselbnzWUPmIl-66">
          <mxGeometry width="50" height="50" relative="1" as="geometry">
            <mxPoint x="30" y="-10" as="sourcePoint" />
            <mxPoint x="140" y="30" as="targetPoint" />
          </mxGeometry>
        </mxCell>
        <mxCell id="Y04NO-_lselbnzWUPmIl-71" value="" style="group;fontFamily=Helvetica;fontSize=12;fontColor=default;labelBackgroundColor=default;" vertex="1" connectable="0" parent="1">
          <mxGeometry x="500" y="690" width="140" height="60" as="geometry" />
        </mxCell>
        <mxCell id="Y04NO-_lselbnzWUPmIl-72" value="" style="endArrow=none;html=1;rounded=0;strokeColor=default;align=center;verticalAlign=middle;fontFamily=Helvetica;fontSize=12;fontColor=default;labelBackgroundColor=default;edgeStyle=none;startSize=8;endSize=8;curved=0;" edge="1" parent="Y04NO-_lselbnzWUPmIl-71">
          <mxGeometry width="50" height="50" relative="1" as="geometry">
            <mxPoint y="60" as="sourcePoint" />
            <mxPoint as="targetPoint" />
          </mxGeometry>
        </mxCell>
        <mxCell id="Y04NO-_lselbnzWUPmIl-73" value="" style="triangle;whiteSpace=wrap;html=1;fontFamily=Helvetica;fontSize=12;labelBackgroundColor=default;fontColor=default;" vertex="1" parent="Y04NO-_lselbnzWUPmIl-71">
          <mxGeometry x="20" width="50" height="60" as="geometry" />
        </mxCell>
        <mxCell id="Y04NO-_lselbnzWUPmIl-74" value="" style="triangle;whiteSpace=wrap;html=1;fontFamily=Helvetica;fontSize=12;labelBackgroundColor=default;rotation=-180;fontColor=default;" vertex="1" parent="Y04NO-_lselbnzWUPmIl-71">
          <mxGeometry x="70" width="50" height="60" as="geometry" />
        </mxCell>
        <mxCell id="Y04NO-_lselbnzWUPmIl-75" value="" style="ellipse;whiteSpace=wrap;html=1;aspect=fixed;fontFamily=Helvetica;fontSize=12;labelBackgroundColor=default;fontColor=default;" vertex="1" parent="Y04NO-_lselbnzWUPmIl-71">
          <mxGeometry x="50" y="11" width="40" height="40" as="geometry" />
        </mxCell>
        <mxCell id="Y04NO-_lselbnzWUPmIl-76" value="" style="endArrow=none;html=1;rounded=0;strokeColor=default;align=center;verticalAlign=middle;fontFamily=Helvetica;fontSize=12;fontColor=default;labelBackgroundColor=default;edgeStyle=none;startSize=8;endSize=8;curved=0;" edge="1" parent="Y04NO-_lselbnzWUPmIl-71">
          <mxGeometry width="50" height="50" relative="1" as="geometry">
            <mxPoint x="140" y="60" as="sourcePoint" />
            <mxPoint x="140" as="targetPoint" />
          </mxGeometry>
        </mxCell>
        <mxCell id="Y04NO-_lselbnzWUPmIl-77" value="" style="endArrow=none;html=1;rounded=0;strokeColor=default;align=center;verticalAlign=middle;fontFamily=Helvetica;fontSize=12;fontColor=default;labelBackgroundColor=default;edgeStyle=none;startSize=8;endSize=8;curved=0;entryX=0;entryY=0.5;entryDx=0;entryDy=0;" edge="1" parent="Y04NO-_lselbnzWUPmIl-71" target="Y04NO-_lselbnzWUPmIl-73">
          <mxGeometry width="50" height="50" relative="1" as="geometry">
            <mxPoint y="30" as="sourcePoint" />
            <mxPoint x="80" y="-60" as="targetPoint" />
          </mxGeometry>
        </mxCell>
        <mxCell id="Y04NO-_lselbnzWUPmIl-78" value="" style="endArrow=none;html=1;rounded=0;strokeColor=default;align=center;verticalAlign=middle;fontFamily=Helvetica;fontSize=12;fontColor=default;labelBackgroundColor=default;edgeStyle=none;startSize=8;endSize=8;curved=0;exitX=0;exitY=0.5;exitDx=0;exitDy=0;" edge="1" parent="Y04NO-_lselbnzWUPmIl-71" source="Y04NO-_lselbnzWUPmIl-74">
          <mxGeometry width="50" height="50" relative="1" as="geometry">
            <mxPoint x="30" y="-10" as="sourcePoint" />
            <mxPoint x="140" y="30" as="targetPoint" />
          </mxGeometry>
        </mxCell>
        <mxCell id="Y04NO-_lselbnzWUPmIl-79" value="" style="group;fontFamily=Helvetica;fontSize=12;fontColor=default;labelBackgroundColor=default;points=[[0,0.5,0,0,0],[1,0.5,0,0,0]];" vertex="1" connectable="0" parent="1">
          <mxGeometry x="-80" y="690" width="100" height="60" as="geometry" />
        </mxCell>
        <mxCell id="Y04NO-_lselbnzWUPmIl-80" value="" style="triangle;whiteSpace=wrap;html=1;fontFamily=Helvetica;fontSize=12;labelBackgroundColor=default;fontColor=default;" vertex="1" parent="Y04NO-_lselbnzWUPmIl-79">
          <mxGeometry width="50" height="60" as="geometry" />
        </mxCell>
        <mxCell id="Y04NO-_lselbnzWUPmIl-81" value="" style="triangle;whiteSpace=wrap;html=1;fontFamily=Helvetica;fontSize=12;labelBackgroundColor=default;rotation=-180;fontColor=default;" vertex="1" parent="Y04NO-_lselbnzWUPmIl-79">
          <mxGeometry x="50" width="50" height="60" as="geometry" />
        </mxCell>
        <mxCell id="Y04NO-_lselbnzWUPmIl-82" value="" style="ellipse;whiteSpace=wrap;html=1;aspect=fixed;fontFamily=Helvetica;fontSize=12;labelBackgroundColor=default;fontColor=default;" vertex="1" parent="Y04NO-_lselbnzWUPmIl-79">
          <mxGeometry x="30" y="11" width="40" height="40" as="geometry" />
        </mxCell>
      </root>
    </mxGraphModel>
  </diagram>
</mxfile>
